<?xml version="1.0" encoding="UTF-8"?>
<!DOCTYPE svg PUBLIC "-//W3C//DTD SVG 1.1//EN" "http://www.w3.org/Graphics/SVG/1.1/DTD/svg11.dtd">
<!-- Creator: CorelDRAW 2020 (64-Bit) -->
<svg xmlns="http://www.w3.org/2000/svg" xml:space="preserve" width="519px" height="140px" version="1.1"
     style="shape-rendering:geometricPrecision; text-rendering:geometricPrecision; image-rendering:optimizeQuality; fill-rule:evenodd; clip-rule:evenodd"
     viewBox="0 0 519 140"
>
 <defs>
  <style type="text/css">
   <![CDATA[
    .fil0 {fill:#444444;fill-rule:nonzero}
   ]]>
  </style>
 </defs>
    <g id="图层_x0020_1">
  <metadata id="CorelCorpID_0Corel-Layer"/>
        <g id="SIMPLE_x0020_SO">
   <g data-width="345.68603515625">
    <path class="fil0"
          d="M12 106.96l0 0c-0.82,-0.47 -1.53,-0.97 -2.13,-1.49 -0.59,-0.52 -0.89,-1.16 -0.89,-1.95l0 0c0,-0.4 0.12,-0.73 0.37,-1.01 0.25,-0.27 0.61,-0.4 1.07,-0.4l0 0c0.4,0 0.74,0.08 1.02,0.23 0.28,0.15 0.67,0.47 1.16,0.94l0 0c0.72,0.64 1.56,1.22 2.52,1.75 0.96,0.53 2.01,0.98 3.13,1.36 1.13,0.38 2.31,0.67 3.55,0.87 1.24,0.2 2.52,0.3 3.83,0.3l0 0c1.33,0 2.53,-0.13 3.59,-0.39 1.07,-0.26 1.97,-0.62 2.71,-1.08 0.74,-0.46 1.3,-1 1.7,-1.62 0.4,-0.63 0.6,-1.32 0.6,-2.07l0 0c0,-0.43 -0.05,-0.85 -0.14,-1.27 -0.1,-0.4 -0.29,-0.85 -0.58,-1.33 -0.29,-0.49 -0.72,-1.03 -1.28,-1.64 -0.56,-0.59 -1.31,-1.31 -2.27,-2.16 -0.95,-0.83 -2.12,-1.81 -3.51,-2.93 -1.39,-1.12 -3.06,-2.43 -5,-3.95l0 0c-2.13,-1.64 -3.91,-3.18 -5.34,-4.61 -1.43,-1.42 -2.57,-2.81 -3.44,-4.16 -0.87,-1.34 -1.49,-2.68 -1.86,-4.02 -0.37,-1.35 -0.56,-2.77 -0.56,-4.26l0 0c0,-1.81 0.37,-3.52 1.11,-5.13 0.73,-1.6 1.82,-3 3.26,-4.21 1.44,-1.2 3.23,-2.16 5.36,-2.86 2.13,-0.71 4.58,-1.06 7.37,-1.06l0 0c1.36,0 2.71,0.12 4.05,0.36 1.35,0.23 2.59,0.54 3.71,0.95l0 0c1.92,0.75 3.28,1.45 4.07,2.08 0.8,0.64 1.2,1.29 1.2,1.95l0 0c0,0.4 -0.13,0.74 -0.37,1.01 -0.25,0.27 -0.57,0.4 -0.97,0.4l0 0c-0.33,0 -0.61,-0.06 -0.86,-0.2 -0.25,-0.12 -0.57,-0.35 -0.97,-0.69l0 0c-0.46,-0.44 -1.05,-0.86 -1.77,-1.25 -0.71,-0.38 -1.53,-0.73 -2.44,-1.03 -0.91,-0.31 -1.9,-0.56 -2.97,-0.74 -1.06,-0.18 -2.18,-0.26 -3.35,-0.26l0 0c-1.57,0 -2.75,0.32 -3.53,0.97 -0.78,0.66 -1.18,1.49 -1.18,2.5l0 0c0,0.42 0.08,0.86 0.22,1.31 0.14,0.44 0.46,0.99 0.96,1.65 0.5,0.64 1.25,1.43 2.25,2.36 1,0.93 2.33,2.09 4.02,3.49l0 0c3.32,2.71 5.98,5.07 7.95,7.07 1.98,2.01 3.49,3.81 4.51,5.4 1.04,1.59 1.71,3.06 2.01,4.4 0.31,1.35 0.46,2.72 0.46,4.11l0 0c0,2.3 -0.48,4.41 -1.43,6.31 -0.95,1.9 -2.28,3.53 -3.98,4.9 -1.72,1.37 -3.74,2.43 -6.08,3.18 -2.34,0.76 -4.9,1.13 -7.69,1.13l0 0c-2.53,0 -4.92,-0.28 -7.18,-0.84 -2.26,-0.57 -4.26,-1.36 -5.99,-2.37z"
          data-glyph-w="36.6064453125"/>
       <polygon class="fil0" points="53.19,109.5 53.19,59.44 71.1,59.44 71.1,109.5 " data-glyph-w="25.50146484375"/>
       <path class="fil0"
             d="M77.14 108.19l0 0c0.05,-0.37 0.13,-0.71 0.23,-1.02 0.11,-0.31 0.31,-0.74 0.62,-1.31l0 0c0.18,-0.35 0.35,-0.68 0.5,-0.99 0.15,-0.31 0.31,-0.64 0.48,-1.01 0.16,-0.36 0.35,-0.79 0.56,-1.29 0.21,-0.5 0.47,-1.11 0.78,-1.84l0 0 14.43 -43.55 15.52 30.21 15.06 -30.21 18.02 52.32 -18.85 0 -8.71 -27.02 -13.49 28.3 -14.19 -25.47 -4.92 15.45c-0.39,0.9 -0.71,1.69 -0.94,2.36 -0.24,0.67 -0.44,1.26 -0.6,1.78 -0.17,0.53 -0.31,1 -0.42,1.42 -0.12,0.43 -0.25,0.83 -0.39,1.21l0 0c-0.28,0.96 -0.62,1.63 -1.01,2.01 -0.41,0.37 -0.88,0.54 -1.41,0.49l0 0c-0.45,-0.04 -0.79,-0.24 -1.01,-0.59 -0.24,-0.36 -0.32,-0.77 -0.26,-1.25z"
             data-glyph-w="59.15478515625"/>
       <path class="fil0"
             d="M150.43 109.5l0 -50.06 13.46 0c2.68,0 4.91,0.01 6.66,0.04 1.76,0.02 3.24,0.07 4.43,0.15 1.2,0.07 2.21,0.16 3.04,0.27 0.83,0.12 1.67,0.27 2.51,0.43l0 0c2.41,0.5 4.56,1.3 6.44,2.4 1.89,1.11 3.48,2.43 4.78,3.95 1.3,1.52 2.27,3.22 2.93,5.09 0.66,1.88 0.96,3.84 0.91,5.89l0 0c-0.07,2.67 -0.5,5.13 -1.29,7.38 -0.8,2.26 -1.93,4.25 -3.38,5.98 -1.45,1.74 -3.22,3.17 -5.33,4.32 -2.11,1.14 -4.5,1.92 -7.17,2.35l0 0c-1.55,0.21 -2.76,0.31 -3.65,0.31l0 0c-1.12,0 -1.93,-0.14 -2.42,-0.43 -0.5,-0.3 -0.75,-0.73 -0.75,-1.29l0 0c0,-0.43 0.19,-0.78 0.58,-1.05 0.37,-0.27 0.87,-0.41 1.5,-0.41l0 0c0.28,0 0.55,0.01 0.79,0.02 0.24,0.01 0.48,0.03 0.72,0.06l0 0c0.26,0.02 0.53,0.04 0.82,0.04 0.3,0.02 0.56,0.03 0.8,0.03l0 0c2.25,0 4.33,-0.4 6.24,-1.19 1.92,-0.79 3.59,-1.9 5.02,-3.34 1.41,-1.45 2.53,-3.17 3.34,-5.17 0.82,-2.01 1.27,-4.22 1.34,-6.65l0 0c0.06,-2 -0.14,-3.81 -0.62,-5.41 -0.48,-1.6 -1.19,-3.03 -2.12,-4.27 -0.94,-1.23 -2.08,-2.3 -3.43,-3.2 -1.34,-0.89 -2.84,-1.64 -4.51,-2.23l0 0c-1.38,-0.49 -2.97,-0.87 -4.79,-1.11 -1.81,-0.25 -3.81,-0.37 -5.98,-0.37l0 0 -2.96 0 0 47.47 -17.91 0z"
             data-glyph-w="46.66552734375"/>
       <path class="fil0"
             d="M203.7 109.5l0 -50.06 17.91 0 0 47.73 6.58 0c0.91,0 1.65,-0.05 2.22,-0.16 0.57,-0.11 1.06,-0.21 1.47,-0.3l0 0c0.46,-0.09 0.86,-0.19 1.2,-0.29 0.34,-0.09 0.58,-0.14 0.72,-0.14l0 0c0.61,0 1.07,0.13 1.38,0.37 0.32,0.26 0.48,0.66 0.48,1.22l0 0c0,0.43 -0.25,0.81 -0.75,1.14 -0.5,0.33 -1.4,0.49 -2.69,0.49l0 0 -28.52 0z"
             data-glyph-w="33.86865234375"/>
       <path class="fil0"
             d="M241.77 109.5l0 -50.06 26.49 0c0.46,0 0.86,0 1.2,0 0.34,0 0.65,-0.01 0.93,-0.03l0 0c0.45,-0.03 0.82,-0.04 1.11,-0.05 0.29,-0.01 0.57,-0.02 0.82,-0.02l0 0c0.87,0 1.52,0.14 1.97,0.42 0.45,0.29 0.67,0.66 0.67,1.13l0 0c0,0.41 -0.15,0.78 -0.44,1.12 -0.29,0.34 -0.75,0.51 -1.36,0.51l0 0c-0.16,0 -0.35,-0.01 -0.57,-0.03 -0.23,-0.02 -0.56,-0.08 -1,-0.18l0 0c-0.45,-0.1 -1.02,-0.17 -1.7,-0.23 -0.69,-0.06 -1.51,-0.08 -2.45,-0.08l0 0 -7.76 0 0 10.78 6.4 0c0.58,0 1.08,-0.01 1.5,-0.02 0.43,-0.01 0.78,-0.02 1.05,-0.05l0 0c0.36,-0.02 0.66,-0.04 0.9,-0.07 0.25,-0.02 0.53,-0.03 0.86,-0.03l0 0c0.52,0 0.96,0.12 1.32,0.37 0.36,0.24 0.54,0.59 0.54,1.04l0 0c0,0.5 -0.17,0.86 -0.52,1.11 -0.35,0.25 -0.83,0.38 -1.44,0.38l0 0c-0.22,0 -0.43,-0.01 -0.63,-0.02 -0.21,-0.01 -0.51,-0.02 -0.88,-0.02l0 0c-0.26,-0.02 -0.55,-0.04 -0.87,-0.06 -0.31,-0.04 -0.66,-0.05 -1.06,-0.05l0 0 -7.17 0 0 31.56 7.76 0c0.94,0 1.76,-0.03 2.45,-0.07 0.68,-0.05 1.25,-0.11 1.7,-0.18l0 0c0.44,-0.11 0.77,-0.18 1,-0.19 0.22,-0.02 0.41,-0.02 0.57,-0.02l0 0c0.61,0 1.07,0.13 1.36,0.39 0.29,0.26 0.44,0.6 0.44,1.02l0 0c0,0.43 -0.26,0.81 -0.78,1.14 -0.51,0.33 -1.4,0.49 -2.66,0.49l0 0 -29.75 0z"
             data-glyph-w="36.791015625"/>
       <path class="fil0"
             d="M300.38 106.96l0 0c-0.82,-0.47 -1.52,-0.97 -2.13,-1.49 -0.59,-0.52 -0.89,-1.16 -0.89,-1.95l0 0c0,-0.4 0.13,-0.73 0.37,-1.01 0.25,-0.27 0.61,-0.4 1.07,-0.4l0 0c0.4,0 0.74,0.08 1.02,0.23 0.28,0.15 0.67,0.47 1.16,0.94l0 0c0.73,0.64 1.57,1.22 2.53,1.75 0.95,0.53 2,0.98 3.12,1.36 1.13,0.38 2.31,0.67 3.55,0.87 1.24,0.2 2.52,0.3 3.83,0.3l0 0c1.33,0 2.53,-0.13 3.59,-0.39 1.07,-0.26 1.97,-0.62 2.71,-1.08 0.74,-0.46 1.3,-1 1.7,-1.62 0.4,-0.63 0.61,-1.32 0.61,-2.07l0 0c0,-0.43 -0.05,-0.85 -0.15,-1.27 -0.09,-0.4 -0.28,-0.85 -0.57,-1.33 -0.3,-0.49 -0.73,-1.03 -1.29,-1.64 -0.56,-0.59 -1.31,-1.31 -2.26,-2.16 -0.96,-0.83 -2.13,-1.81 -3.52,-2.93 -1.39,-1.12 -3.06,-2.43 -5,-3.95l0 0c-2.13,-1.64 -3.91,-3.18 -5.34,-4.61 -1.43,-1.42 -2.57,-2.81 -3.44,-4.16 -0.87,-1.34 -1.49,-2.68 -1.86,-4.02 -0.37,-1.35 -0.56,-2.77 -0.56,-4.26l0 0c0,-1.81 0.37,-3.52 1.11,-5.13 0.73,-1.6 1.82,-3 3.26,-4.21 1.44,-1.2 3.23,-2.16 5.36,-2.86 2.13,-0.71 4.59,-1.06 7.37,-1.06l0 0c1.36,0 2.71,0.12 4.05,0.36 1.35,0.23 2.59,0.54 3.71,0.95l0 0c1.92,0.75 3.28,1.45 4.07,2.08 0.8,0.64 1.2,1.29 1.2,1.95l0 0c0,0.4 -0.12,0.74 -0.37,1.01 -0.25,0.27 -0.57,0.4 -0.97,0.4l0 0c-0.33,0 -0.61,-0.06 -0.85,-0.2 -0.26,-0.12 -0.58,-0.35 -0.97,-0.69l0 0c-0.47,-0.44 -1.06,-0.86 -1.77,-1.25 -0.72,-0.38 -1.53,-0.73 -2.45,-1.03 -0.91,-0.31 -1.9,-0.56 -2.97,-0.74 -1.06,-0.18 -2.18,-0.26 -3.35,-0.26l0 0c-1.57,0 -2.74,0.32 -3.53,0.97 -0.78,0.66 -1.18,1.49 -1.18,2.5l0 0c0,0.42 0.08,0.86 0.22,1.31 0.14,0.44 0.46,0.99 0.96,1.65 0.5,0.64 1.25,1.43 2.25,2.36 1,0.93 2.34,2.09 4.02,3.49l0 0c3.32,2.71 5.98,5.07 7.96,7.07 1.97,2.01 3.48,3.81 4.5,5.4 1.04,1.59 1.71,3.06 2.01,4.4 0.31,1.35 0.46,2.72 0.46,4.11l0 0c0,2.3 -0.48,4.41 -1.43,6.31 -0.95,1.9 -2.28,3.53 -3.98,4.9 -1.71,1.37 -3.74,2.43 -6.07,3.18 -2.35,0.76 -4.91,1.13 -7.7,1.13l0 0c-2.53,0 -4.92,-0.28 -7.18,-0.84 -2.26,-0.57 -4.26,-1.36 -5.99,-2.37z"
             data-glyph-w="14.02734375"/>
       <path class="fil0"
             d="M339.78 83.89l0 0c0,-3.61 0.65,-6.94 1.95,-9.99 1.3,-3.06 3.11,-5.71 5.41,-7.95 2.31,-2.24 5.04,-3.99 8.19,-5.25 3.14,-1.26 6.58,-1.89 10.3,-1.89l0 0c3.65,0 7.02,0.61 10.11,1.84 3.09,1.23 5.76,2.96 8.01,5.2 2.25,2.24 4,4.93 5.27,8.08 1.26,3.15 1.89,6.64 1.89,10.46l0 0c0,2.54 -0.29,4.95 -0.89,7.23 -0.6,2.28 -1.44,4.37 -2.53,6.28 -1.09,1.91 -2.4,3.63 -3.93,5.15 -1.54,1.52 -3.25,2.8 -5.15,3.86 -1.89,1.05 -3.95,1.85 -6.16,2.42 -2.21,0.56 -4.53,0.84 -6.97,0.84l0 0c-3.44,0 -6.71,-0.61 -9.8,-1.82 -3.09,-1.21 -5.79,-2.95 -8.11,-5.23 -2.32,-2.28 -4.16,-5.04 -5.53,-8.28 -1.37,-3.24 -2.06,-6.89 -2.06,-10.95zm22.19 -22.22l0 45.64c0.69,0.12 1.34,0.2 1.95,0.23 0.63,0.03 1.18,0.05 1.67,0.05l0 0c3.02,0 5.9,-0.54 8.62,-1.63 2.73,-1.08 5.13,-2.63 7.19,-4.65 2.06,-2.01 3.69,-4.45 4.9,-7.32 1.2,-2.87 1.8,-6.07 1.8,-9.6l0 0c0,-3.26 -0.54,-6.29 -1.64,-9.1 -1.1,-2.81 -2.65,-5.24 -4.65,-7.3 -1.98,-2.07 -4.35,-3.68 -7.1,-4.84 -2.75,-1.18 -5.79,-1.76 -9.12,-1.76l0 0c-0.46,0 -1.01,0.02 -1.63,0.05 -0.62,0.04 -1.28,0.12 -1.99,0.23l0 0z"
             data-glyph-w="51.46435546875"/>
   </g>
            <polygon id="箭头" class="fil0" points="365.15,23.65 509.02,26.93 404.59,116.34 410.03,66.2 "/>
  </g>
 </g>
</svg>
