<?xml version="1.0" standalone="no"?><!DOCTYPE svg PUBLIC "-//W3C//DTD SVG 1.1//EN" "http://www.w3.org/Graphics/SVG/1.1/DTD/svg11.dtd" ><svg xmlns="http://www.w3.org/2000/svg"><metadata></metadata><defs><font id="fonteditor" horiz-adv-x="888"><font-face font-family="Noto Sans SC Bold" font-weight="600" font-stretch="normal" units-per-em="1000" panose-1="2 11 8 0 0 0 0 0 0 0" ascent="1332" descent="-551" x-height="0" bbox="-39 -250 875 750" underline-thickness="0" underline-position="0" unicode-range="U+0021-00a9" /><missing-glyph horiz-adv-x="0"  /><glyph glyph-name="exclam" unicode="!" d="M77 221 L55 674 L213 674 L191 221 L77 221 ZM132 -11 Q111 -11 96 -4 Q80 3 68 15 Q58 26 50 44 Q44 60 44 80 Q44 102 51 117 Q57 134 69 146 Q83 158 97 164 Q112 171 134 171 Q155 171 170 164 Q186 158 198 146 Q210 134 216 117 Q223 102 223 80 Q223 60 217 44 Q211 27 199 15 Q188 3 171 -4 Q156 -11 134 -11 L132 -11 Z" /><glyph glyph-name="quotedbl" unicode="&quot;" d="M170 692 L147 421 L58 421 L35 692 L170 692 ZM362 692 L339 421 L250 421 L227 692 L362 692 Z" /><glyph glyph-name="dollar" unicode="$" d="M225 -87 L225 8 Q208 9 176 13 Q144 19 129 23 Q114 26 88 36 Q70 44 55 51 L85 168 Q99 160 107 157 L119 151 Q123 149 131 146.5 Q139 144 143 143 Q145 142 151 140 Q157 138 159 137 Q182 131 204 128 Q224 124 251 124 Q276 124 291 128 Q309 132 321 140 Q332 147 341 160 Q348 170 348 186 Q348 215 323 234 Q297 255 241 273 Q202 286 168 303 Q135 320 111 342 Q87 364 74 391 Q61 418 61 456 Q61 489 73 519 Q84 548 105 571 Q129 595 158 610 Q190 626 230 634 L230 729 L328 729 L328 641 Q375 640 413 630 Q453 618 474 608 L444 495 Q440 498 432 501 Q431 501 427 502.5 Q423 504 421 505 Q406 512 390 517 Q372 523 349 526 Q329 530 300 530 Q277 530 259 525 Q244 521 233 512 Q222 504 218 494 Q214 485 214 473 Q214 460 221 450 Q226 441 242 430 Q252 423 280 410 Q299 401 335 388 Q381 373 411 354 Q440 337 463 313 Q483 288 492 262 Q501 235 501 200 Q501 169 490 136 Q478 105 456 82 Q433 58 400 41 Q368 24 324 16 L324 -87 L225 -87 Z" /><glyph glyph-name="percent" unicode="%" d="M134 646 Q168 661 210 661 Q252 661 284 646 Q315 633 339 606 Q362 580 372 545 Q384 509 384 468 Q384 417 369 378 Q353 339 329 313 Q304 287 272 273 Q242 260 204 260 Q165 260 135 273 Q102 286 78 312 Q55 336 41 374 Q27 413 27 457 Q27 502 40 538 Q53 574 76 603 Q100 630 134 646 ZM205 578 Q190 578 176 569 Q163 559 156 544 Q148 527 144 506 Q140 489 140 460 Q140 433 144 413 Q149 391 157 376 Q164 360 178 352 Q192 343 207 343 Q240 343 255 374 Q271 405 271 461 Q271 490 267 507 Q264 527 256 544 Q249 559 236 569 Q223 578 205 578 ZM211 -11 L585 660 L666 660 L293 -11 L211 -11 ZM678 391 Q720 391 752 376 Q783 363 807 336 Q829 311 841 275 Q852 239 852 198 Q852 146 837 109 Q821 70 797 44 Q773 18 740 5 Q706 -9 672 -9 Q636 -9 603 5 Q569 20 547 43 Q523 68 510 105 Q496 142 496 187 Q496 232 509 268 Q520 304 545 333 Q569 360 603 375 Q635 391 678 391 ZM704 299 Q692 308 674 308 Q656 308 645 299 Q633 291 625 274 Q616 257 613 237 Q609 217 609 191 Q609 164 613 144 Q617 124 625 107 Q634 92 646 83 Q660 74 675 74 Q707 74 723 105 Q739 136 739 191 Q739 220 735 237 Q732 257 724 274 Q717 289 704 299 Z" /><glyph glyph-name="ampersand" unicode="&amp;" d="M495 0 Q488 7 474 23 Q464 32 457 41 Q453 45 451 48 Q418 22 372 6 Q324 -11 266 -11 Q203 -11 161 5 Q118 21 87 49 Q58 76 45 110 Q31 146 31 180 Q31 214 40 242 Q49 270 66 295 Q83 319 107 339 Q129 358 159 374 L159 377 Q148 389 138 404 Q132 414 122 436 Q122 437 121.5 439.5 Q121 442 120 443 Q118 448 115 457 Q112 466 111 471 Q107 487 107 508 Q107 542 120 572 Q132 603 158 629 Q185 656 222 670 Q258 686 311 686 Q348 686 383 675 Q415 665 441 644 Q465 623 479 594 Q493 563 493 528 Q493 476 462 433 Q430 390 360 355 L359 351 Q368 342 384 322 Q387 319 388 317 L418 284 Q419 283 429 271.5 Q439 260 444 255 Q444 254 445 254 L446 252 Q455 243 459 238 Q468 229 472 224 Q481 238 491 260 Q499 276 507 300 Q512 314 520 344 Q526 366 529 389 L665 389 Q652 316 625 247 Q598 182 553 133 Q591 89 611 67 Q614 63 672 0 L495 0 ZM289 99 Q320 99 341 109 Q365 118 380 133 Q362 150 347 167 Q344 170 338.5 176.5 Q333 183 330 186 Q327 189 320.5 196.5 Q314 204 310 208 L307 211 Q301 217 289 231 Q277 245 270 252 L249 276 Q242 283 228 299 Q221 294 208 281 Q200 274 191 260 Q184 250 179 235 Q175 223 175 205 Q175 185 183 164 Q190 145 205 130 Q221 116 241 107 Q263 99 289 99 ZM304 591 Q288 591 278 585 Q268 579 260 570 Q252 559 248 548 Q244 537 244 522 Q244 498 255 473 Q267 449 291 425 Q327 448 346 472 Q364 494 364 524 Q364 537 360 548 Q357 560 350 570 Q342 579 332 585 Q322 591 306 591 L304 591 Z" /><glyph glyph-name="quotesingle" unicode="&#39;" d="M170 692 L147 421 L58 421 L35 692 L170 692 Z" /><glyph glyph-name="parenleft" unicode="(" d="M280 691 Q262 662 240 614 Q222 567 208 521 Q195 472 187 412 Q179 350 179 286 Q179 224 187 162 Q194 104 208 54 Q222 8 240 -39 Q261 -86 280 -117 L174 -117 Q154 -90 134 -48 Q114 -11 97 42 Q80 93 70 153 Q60 212 60 286 Q60 357 71 421 Q81 479 97 532 Q114 585 134 622 Q155 663 174 691 L280 691 Z" /><glyph glyph-name="parenright" unicode=")" d="M35 -117 Q56 -82 74 -39 Q91 -2 106 54 Q120 102 128 163 Q136 225 136 288 Q136 351 128 413 Q120 473 106 521 Q91 576 74 614 Q55 658 35 691 L141 691 Q157 668 181 623 Q203 578 218 533 Q234 484 245 422 Q255 363 255 287 Q255 217 244 153 Q234 95 218 42 Q204 -1 181 -48 Q158 -91 141 -117 L35 -117 Z" /><glyph glyph-name="asterisk" unicode="*" d="M372 635 L265 507 L265 505 L425 537 L425 436 L264 463 L264 461 L372 337 L284 286 L226 440 L224 440 L167 286 L81 337 L188 462 L187 464 L30 436 L30 537 L186 505 L186 507 L81 634 L170 686 L225 531 L227 531 L285 686 L372 635 Z" /><glyph glyph-name="plus" unicode="+" d="M347 532 L347 314 L556 314 L556 221 L347 221 L347 0 L249 0 L249 221 L40 221 L40 314 L249 314 L249 532 L347 532 Z" /><glyph glyph-name="comma" unicode="," d="M1 -119 Q16 -79 24 -50 Q38 -2 44 22 Q51 48 60 89 Q60 93 61 95 Q62 97 62 102 Q70 134 74 165 L229 175 Q216 135 202 98 Q182 48 171 23 Q157 -11 138 -47 Q124 -75 103 -110 L1 -119 Z" /><glyph glyph-name="hyphen" unicode="-" d="M292 313 L292 212 L30 212 L30 313 L292 313 Z" /><glyph glyph-name="period" unicode="." d="M138 -11 Q118 -11 103 -4 Q86 3 75 15 Q64 26 56 44 Q50 62 50 81 Q50 102 56 119 Q64 137 75 148 Q86 159 104 167 Q119 174 140 174 Q161 174 176 167 Q192 161 204 148 Q214 138 222 119 Q229 104 229 81 Q229 61 222 44 Q216 27 204 15 Q193 3 176 -4 Q161 -11 138 -11 Z" /><glyph glyph-name="slash" unicode="/" d="M16 -39 L230 686 L331 686 L117 -39 L16 -39 Z" /><glyph glyph-name="zero" unicode="0" d="M280 661 Q344 661 391 634 Q437 607 466 561 Q496 513 509 455 Q522 396 522 328 Q522 252 507 191 Q492 127 461 83 Q429 39 384 14 Q338 -11 276 -11 Q214 -11 167 15 Q121 42 92 88 Q61 136 48 194 Q34 256 33 324 Q33 396 48 457 Q63 519 94 563 Q124 610 170 635 Q217 661 280 661 ZM278 546 Q256 546 240 533 Q223 519 211 492 Q200 467 192 423 Q185 384 185 324 Q185 211 210 158 Q236 104 279 104 Q323 104 347 159 Q370 216 370 326 Q370 435 347 490 Q323 546 278 546 Z" /><glyph glyph-name="one" unicode="1" d="M236 515 L234 515 L110 456 L85 570 L258 650 L383 650 L383 0 L236 0 L236 515 Z" /><glyph glyph-name="two" unicode="2" d="M43 0 L43 92 L126 167 Q173 209 219 253 Q257 290 286 325 Q311 357 325 387 Q339 417 339 444 Q339 465 333 481 Q327 500 314 511 Q302 524 281 532 Q263 539 233 539 Q214 539 192 534 Q174 530 155 522 Q144 517 122 505 Q112 498 94 486 L51 594 Q70 608 92 620 Q115 631 142 641 Q171 650 200 656 Q233 661 263 661 Q319 661 361 646 Q405 629 433 603 Q461 576 476 539 Q491 502 491 458 Q491 416 478 380 Q465 344 440 308 Q416 273 385 241 Q354 208 318 177 L258 127 L258 125 L504 125 L504 0 L43 0 Z" /><glyph glyph-name="three" unicode="3" d="M69 149 Q79 143 95 136 Q96 136 100 134.5 Q104 133 106 132 Q122 126 131 123 Q147 118 174 113 Q195 109 220 109 Q250 109 272 115 Q295 123 309 134 Q323 145 331 161 Q339 179 339 195 Q339 218 328 237 Q317 255 299 266 Q278 279 257 283 Q234 289 208 289 L146 289 L146 398 L206 398 Q228 398 245 402 Q267 407 282 415 Q299 423 310 438 Q321 452 321 473 Q321 502 297 522 Q275 541 225 541 Q204 541 185 537 Q168 534 152 528 Q148 528 147 527 Q127 520 115 515 Q113 514 111 513 Q109 512 107 511 Q100 508 90 502 L59 612 Q74 621 95 630 Q111 637 142 646 Q160 651 198 657 Q226 661 260 661 Q313 661 352 648 Q391 637 419 613 Q448 590 461 562 Q475 531 475 499 Q475 449 446 408 Q416 369 356 348 L356 346 Q383 342 411 327 Q437 313 456 293 Q475 274 486 246 Q497 218 497 187 Q497 146 479 108 Q461 73 426 45 Q390 19 342 4 Q292 -11 231 -11 Q196 -11 171 -7 Q136 -1 117 3 Q95 8 73 17 Q60 23 38 34 L69 149 Z" /><glyph glyph-name="four" unicode="4" d="M311 0 L311 155 L23 155 L23 254 L268 650 L455 650 L455 269 L532 269 L532 155 L455 155 L455 0 L311 0 ZM311 269 L311 413 Q311 453 312 472 Q313 492 315 534 L312 534 Q302 513 282 473 Q280 468 274.5 458 Q269 448 266 443 L251 413 L165 271 L164 269 L311 269 Z" /><glyph glyph-name="five" unicode="5" d="M476 525 L224 525 L210 425 Q213 426 220 426 Q227 426 230 427 L252 427 Q276 427 299 424 Q319 423 344 416 Q365 410 386 401 Q404 393 423 380 Q461 354 481 315 Q502 274 502 217 Q502 171 483 130 Q462 87 428 57 Q394 27 340 7 Q289 -11 223 -11 Q192 -11 167 -8 Q147 -6 116 0 Q94 6 74 12 Q57 18 42 26 L70 140 Q71 139 72 139 Q74 138 75 138 Q84 134 96 129 Q109 124 132 119 Q158 113 172 111 Q194 108 216 108 Q239 108 263 114 Q286 120 305 132 Q323 144 335 162 Q346 182 346 207 Q346 233 336 252 Q325 273 303 286 Q282 299 247 307 Q210 315 163 315 Q142 315 116 313 Q93 313 76 309 L118 650 L476 650 L476 525 Z" /><glyph glyph-name="six" unicode="6" d="M457 542 Q445 544 430 542 Q423 542 401 540 L398 540 Q346 535 310 521 Q274 508 248 486 Q222 466 207 439 Q192 414 186 385 L189 385 Q214 410 248 423 Q281 436 327 436 Q366 436 405 422 Q440 409 468 381 Q496 353 512 314 Q528 276 528 224 Q528 176 510 133 Q494 93 461 58 Q429 26 385 7 Q342 -11 289 -11 Q222 -11 175 11 Q128 35 94 73 Q62 112 46 163 Q30 214 30 273 Q30 367 61 439 Q91 512 146 563 Q195 609 257 631 Q320 654 396 658 Q419 661 432 660 Q450 660 457 659 L457 542 ZM287 101 Q306 101 323 110 Q340 118 350 134 Q362 149 368 170 Q374 191 374 216 Q374 240 368 259 Q362 278 350 295 Q338 310 320 319 Q301 328 277 328 Q260 328 248 324 Q233 319 222 312 Q208 300 202 293 Q193 282 188 271 Q181 260 181 232 Q183 202 189 182 Q198 156 209 141 Q221 123 241 112 Q263 101 287 101 Z" /><glyph glyph-name="seven" unicode="7" d="M508 650 L508 554 L240 0 L79 0 L347 523 L347 525 L49 525 L49 650 L508 650 Z" /><glyph glyph-name="eight" unicode="8" d="M148 335 Q100 361 77 397 Q54 435 54 478 Q54 518 72 553 Q88 587 120 611 Q149 634 192 648 Q234 661 283 661 Q340 661 381 646 Q421 631 448 607 Q474 584 486 554 Q498 524 498 494 Q498 472 492 453 Q486 434 475 414 Q464 397 445 379 Q428 364 403 351 L403 348 Q425 340 448 325 Q470 311 487 290 Q505 267 513 244 Q523 220 523 187 Q523 142 505 106 Q487 70 455 44 Q421 17 376 3 Q328 -11 273 -11 Q211 -11 166 5 Q120 20 91 46 Q60 74 47 104 Q32 137 32 170 Q32 229 63 269 Q94 309 148 333 L148 335 ZM279 94 Q298 94 315 100 Q330 105 343 117 Q354 126 362 143 Q368 156 368 175 Q368 198 361 213 Q355 228 339 244 Q329 254 307 267 Q286 277 266 282 Q227 271 208 246 Q187 220 187 185 Q187 168 193 151 Q198 136 211 122 Q224 110 240 102 Q258 94 279 94 ZM276 558 Q257 558 242 552 Q226 546 218 536 Q208 526 203 512 Q198 497 198 483 Q198 466 205 453 Q213 439 224 428 Q234 420 253 409 Q273 400 289 395 Q300 398 314 406 Q324 412 335 425 Q344 436 350 449 Q355 464 355 477 Q355 494 351 507 Q347 522 337 533 Q326 545 312 551 Q298 558 276 558 Z" /><glyph glyph-name="nine" unicode="9" d="M89 109 Q100 108 118 108 Q140 108 155 109 Q191 112 224 121 Q259 132 283 149 Q318 173 336 202 Q358 234 365 270 L363 271 Q340 248 309 236 Q278 224 232 224 Q193 224 154 238 Q119 251 90 278 Q63 302 46 341 Q30 377 30 427 Q30 475 48 517 Q66 559 99 592 Q131 624 176 642 Q220 661 275 661 Q339 661 384 639 Q430 617 461 578 Q491 541 506 489 Q521 438 521 381 Q521 278 491 205 Q461 131 407 81 Q360 38 297 16 Q236 -4 158 -9 Q134 -11 120 -10 Q107 -10 101 -9 L89 -9 L89 109 ZM269 550 Q252 550 234 542 Q218 533 206 518 Q194 503 188 482 Q181 464 181 436 Q181 416 187 396 Q193 379 204 363 Q216 349 233 340 Q252 332 273 332 Q305 332 326 344 Q348 358 358 374 Q362 380 363 386 Q363 389 364 390 Q365 397 365 413 Q366 434 361 464 Q357 488 344 507 Q333 526 314 538 Q296 550 269 550 Z" /><glyph glyph-name="colon" unicode=":" d="M139 312 Q118 312 103 319 Q87 326 75 338 Q63 350 57 367 Q51 384 51 403 Q51 424 57 440 Q65 458 76 469 Q88 482 104 488 Q119 495 140 495 Q160 495 176 489 Q193 482 204 470 Q216 458 222 440 Q229 425 229 403 Q229 384 223 367 Q215 349 205 338 Q194 327 176 319 Q161 312 139 312 ZM139 -11 Q118 -11 103 -4 Q86 3 75 15 Q63 27 57 44 Q51 60 51 80 Q51 100 57 117 Q65 135 76 146 Q88 158 104 165 Q119 172 140 172 Q161 172 176 165 Q192 159 204 146 Q216 136 222 117 Q229 102 229 80 Q229 60 223 44 Q215 26 205 15 Q194 4 176 -4 Q161 -11 139 -11 Z" /><glyph glyph-name="semicolon" unicode=";" d="M2 -119 Q17 -79 25 -50 Q39 -2 45 22 Q52 48 61 89 Q61 93 62 95 Q63 97 63 102 Q70 134 75 165 L228 175 Q215 135 201 98 Q188 60 171 23 Q160 -1 138 -47 Q136 -49 134 -54 Q132 -59 130 -62 Q116 -88 103 -110 L2 -119 ZM144 312 Q123 312 108 319 Q91 327 81 338 Q69 350 63 367 Q56 382 56 403 Q56 425 63 440 Q69 457 81 469 Q93 482 109 488 Q124 495 145 495 Q164 495 181 489 Q198 482 209 470 Q221 458 227 440 Q234 425 234 403 Q234 384 228 367 Q220 349 209 338 Q200 328 181 319 Q166 312 144 312 Z" /><glyph glyph-name="equal" unicode="=" d="M40 325 L40 418 L556 418 L556 325 L40 325 ZM40 118 L40 211 L556 211 L556 118 L40 118 Z" /><glyph glyph-name="question" unicode="?" d="M138 219 L137 245 Q135 287 148 322 Q161 362 196 401 Q199 406 207 414 L219 429 Q230 442 237 456 Q245 471 249 481 Q254 496 254 506 Q254 532 236 549 Q219 564 181 566 Q173 566 155 564 Q150 563 142 561 Q134 559 129 558 Q114 553 104 548 Q93 544 82 536 L48 645 Q60 652 80 660 Q94 666 119 673 Q135 678 164 683 Q188 686 215 686 Q266 686 301 673 Q338 661 361 639 Q385 618 396 589 Q408 562 408 530 Q408 504 400 478 Q392 454 379 433 Q365 410 351 395 Q343 386 325 365 L322 362 Q296 331 282 301 Q270 270 271 237 L271 219 L138 219 ZM201 -11 Q180 -11 165 -4 Q149 3 137 15 Q126 26 118 44 Q112 60 112 80 Q112 100 118 117 Q126 135 137 146 Q149 158 165 164 Q180 171 201 171 Q223 171 238 164 Q254 158 266 146 Q276 135 284 117 Q291 102 291 80 Q291 60 285 44 Q277 26 267 15 Q256 4 238 -4 Q223 -11 201 -11 Z" /><glyph glyph-name="at" unicode="@" d="M457 345 Q453 346 443 348 Q438 349 426 349 Q403 349 379 338 Q358 326 342 307 Q326 289 317 262 Q308 236 308 207 Q308 178 321 162 Q333 145 358 145 Q371 145 385 153 Q400 162 411 176 Q424 190 431 209 Q440 229 443 250 L457 345 ZM546 -68 Q524 -78 508 -83 Q507 -84 505 -84 Q503 -84 502 -85 Q488 -90 458 -96 Q437 -100 413 -102 Q381 -104 362 -104 Q297 -104 243 -82 Q187 -61 144 -20 Q100 20 75 79 Q50 136 50 211 Q50 262 62 310 Q74 356 97 400 Q119 442 153 478 Q188 514 227 539 Q269 565 318 578 Q369 592 424 592 Q492 592 546 570 Q602 549 642 510 Q683 472 705 419 Q727 368 727 303 Q727 249 713 204 Q698 159 673 128 Q647 98 612 81 Q576 64 537 64 Q502 64 479 83 Q455 102 451 141 L449 141 Q426 104 392 83 Q361 64 319 64 Q295 64 274 73 Q253 83 239 98 Q223 115 216 140 Q207 164 207 195 Q207 241 223 283 Q239 325 270 357 Q301 390 344 409 Q386 428 442 428 Q454 428 476 426 Q487 425 509 421 Q522 418 538 413 Q553 408 561 404 L531 218 Q523 172 529 153 Q535 133 556 131 Q572 130 589 140 Q608 151 621 171 Q635 193 644 224 Q653 257 653 300 Q653 352 637 391 Q622 434 591 465 Q561 495 517 513 Q473 531 414 531 Q355 531 304 509 Q252 488 213 448 Q173 408 150 350 Q127 290 127 220 Q127 156 146 108 Q165 58 198 26 Q232 -7 279 -25 Q328 -42 382 -42 Q419 -42 459 -34 Q496 -27 528 -11 L546 -68 Z" /><glyph glyph-name="A" unicode="a" d="M223 173 L175 0 L18 0 L223 674 L423 674 L633 0 L468 0 L416 173 L223 173 ZM394 287 L352 430 Q344 457 334 495 Q328 520 322 543 Q321 546 319.5 552 Q318 558 318 560 L316 560 Q316 558 314.5 552 Q313 546 312 543 Q312 540 310.5 535 Q309 530 308 528 Q308 526 307 520 Q306 514 305 512 Q304 509 302.5 503 Q301 497 301 495 Q301 493 299.5 487 Q298 481 297 478 Q296 475 294.5 469 Q293 463 293 461 Q292 458 291 454 Q290 450 290 447 Q286 435 285 430 L245 287 L394 287 Z" /><glyph glyph-name="B" unicode="b" d="M66 665 Q80 667 89 668 Q91 669 96 669.5 Q101 670 103 670 Q130 674 151 675 Q179 677 206 678 Q225 679 263 679 Q288 679 326 677 Q355 675 379 671 Q403 666 424 659 Q445 652 463 641 Q499 622 521 588 Q543 556 543 508 Q543 485 536 465 Q531 446 516 425 Q504 409 481 391 Q458 375 432 365 L432 363 Q463 355 485 341 Q509 327 528 305 Q545 285 556 257 Q566 233 566 198 Q566 152 547 115 Q526 79 496 54 Q475 39 453 28 Q429 17 395 9 Q364 2 322 -3 Q286 -7 231 -7 Q174 -7 133 -4 Q86 -1 66 3 L66 665 ZM217 407 L267 407 Q328 407 359 430 Q390 452 390 490 Q390 529 362 548 Q334 568 282 568 Q264 568 256 567 L241 567 Q226 566 217 564 L217 407 ZM217 108 Q233 106 242 106 L276 106 Q300 106 325 111 Q348 117 367 128 Q385 140 395 159 Q406 178 406 204 Q406 230 395 247 Q384 265 366 276 Q347 289 323 293 Q295 298 269 298 L217 298 L217 108 Z" /><glyph glyph-name="C" unicode="c" d="M560 18 Q559 18 559 17 Q550 13 533 8 Q532 7 528 7 Q509 1 494 -1 Q468 -7 445 -9 Q409 -11 388 -11 Q302 -11 235 15 Q170 40 124 86 Q80 130 57 193 Q35 253 35 327 Q35 413 64 480 Q92 547 143 592 Q192 637 260 661 Q329 684 403 684 Q463 684 505 675 Q548 665 569 654 L537 534 Q514 545 482 552 Q453 559 409 559 Q365 559 325 545 Q286 532 257 504 Q227 474 211 434 Q195 393 195 336 Q195 287 209 245 Q224 204 252 176 Q282 146 319 132 Q358 116 410 116 Q422 116 446 118 L449 118 Q469 120 480 122 Q502 126 511 129 Q526 134 538 138 L560 18 Z" /><glyph glyph-name="D" unicode="d" d="M66 664 Q97 669 161 675 Q208 679 271 679 Q324 679 360 675 Q396 671 434 661 Q466 652 496 638 Q525 624 548 607 Q601 567 631 505 Q662 444 662 353 Q662 307 654 264 Q647 224 631 189 Q616 156 595 128 Q576 102 551 80 Q497 36 418 14 Q338 -7 239 -7 Q179 -7 137 -4 Q88 -1 66 3 L66 664 ZM218 115 Q228 114 242 112 L271 112 Q320 111 366 125 Q407 140 438 169 Q468 198 485 243 Q501 287 501 348 Q501 401 486 440 Q470 482 443 508 Q416 534 376 548 Q336 562 287 562 Q269 562 245 560 Q225 558 218 556 L218 115 Z" /><glyph glyph-name="E" unicode="e" d="M467 285 L219 285 L219 125 L496 125 L496 0 L67 0 L67 674 L482 674 L482 549 L219 549 L219 409 L467 409 L467 285 Z" /><glyph glyph-name="F" unicode="f" d="M67 674 L478 674 L478 549 L219 549 L219 395 L461 395 L461 271 L219 271 L219 0 L67 0 L67 674 Z" /><glyph glyph-name="G" unicode="g" d="M629 31 Q624 29 612 25.5 Q600 22 594 20 Q592 20 590 19 Q588 18 586 18 Q562 12 532 6 Q504 0 470 -3 Q441 -7 404 -7 Q313 -7 244 16 Q176 39 130 83 Q84 127 60 191 Q35 253 35 329 Q35 413 65 479 Q94 544 145 589 Q196 634 267 658 Q339 681 420 681 Q452 681 481 678 Q517 674 534 671 Q555 667 576 660 Q593 656 607 649 L575 526 Q562 532 545 538 Q528 543 511 547 Q509 547 505.5 547.5 Q502 548 500 549 Q491 551 469 553 Q441 555 419 555 Q369 555 330 542 Q290 529 259 501 Q229 474 212 433 Q195 391 195 337 Q195 284 211 243 Q226 203 255 174 Q283 146 322 131 Q362 116 408 116 Q434 116 453 119 Q475 121 482 125 L482 267 L378 267 L378 386 L629 386 L629 31 Z" /><glyph glyph-name="H" unicode="h" d="M219 674 L219 415 L470 415 L470 674 L622 674 L622 0 L470 0 L470 282 L219 282 L219 0 L67 0 L67 674 L219 674 Z" /><glyph glyph-name="I" unicode="i" d="M219 674 L219 0 L67 0 L67 674 L219 674 Z" /><glyph glyph-name="J" unicode="j" d="M198 674 L350 674 L350 248 Q350 178 333 127 Q317 78 286 46 Q254 15 210 2 Q168 -11 111 -11 Q93 -11 83 -10 Q80 -10 73 -9.5 Q66 -9 63 -8 Q60 -7 53 -7 Q41 -6 24 -2 Q8 1 -1 5 L16 128 Q33 122 46 120 Q50 120 52 119 Q72 116 94 116 Q118 116 137 122 Q157 128 170 144 Q184 159 191 184 Q198 208 198 249 L198 674 Z" /><glyph glyph-name="K" unicode="k" d="M66 674 L217 674 L217 376 L219 376 L228 391 Q229 393 234 401.5 Q239 410 242 414 L266 450 L418 674 L606 674 L383 387 L617 0 L440 0 L274 291 L217 220 L217 0 L66 0 L66 674 Z" /><glyph glyph-name="L" unicode="l" d="M67 674 L219 674 L219 128 L487 128 L487 0 L67 0 L67 674 Z" /><glyph glyph-name="M" unicode="m" d="M636 258 Q636 267 635 286 Q634 305 634 315 Q633 327 632.5 352 Q632 377 632 390 Q630 486 630 535 L628 535 Q625 526 621 508 Q618 495 610 469 L607 457 Q598 424 591 402 L582 369 Q580 364 577 353 Q574 342 572 336 Q558 294 552 274 L470 11 L351 11 L279 271 Q262 331 246 400 Q236 445 218 535 L216 535 Q214 489 214 465 L211 393 Q209 345 208 322 Q206 288 205 256 L192 0 L51 0 L94 674 L297 674 L363 449 Q376 404 394 329 Q411 259 420 208 L424 208 Q428 228 438 268 Q448 310 454 330 Q455 334 457.5 344.5 Q460 355 462 361 Q464 367 466.5 377.5 Q469 388 470 392 Q476 412 488 450 L559 674 L759 674 L795 0 L647 0 L636 258 Z" /><glyph glyph-name="N" unicode="n" d="M66 0 L66 674 L244 674 L384 427 Q414 378 442 313 Q476 241 494 196 L496 196 Q488 264 487 332 Q484 402 484 478 L484 674 L624 674 L624 0 L464 0 L320 260 Q319 262 310 277 L289 316 L274 346 Q271 351 265.5 361 Q260 371 258 376 Q255 381 251 391 Q243 406 229 438 Q211 478 203 498 L199 498 Q203 431 205 358 Q206 310 206 203 L206 0 L66 0 Z" /><glyph glyph-name="O" unicode="o" d="M363 686 Q442 686 500 659 Q560 632 601 585 Q641 539 662 476 Q683 414 683 344 Q683 262 659 195 Q635 129 592 83 Q549 39 487 13 Q427 -11 352 -11 Q279 -11 219 15 Q161 41 119 89 Q77 137 57 198 Q35 260 35 333 Q35 382 46 429 Q56 475 76 514 Q96 553 125 585 Q153 617 190 639 Q227 662 270 674 Q314 686 363 686 ZM430 547 Q398 565 360 565 Q322 565 290 548 Q260 530 239 500 Q217 467 207 427 Q196 381 196 336 Q196 289 207 245 Q218 203 240 173 Q262 144 291 126 Q320 110 360 110 Q398 110 429 127 Q459 145 480 175 Q500 206 511 248 Q522 292 522 339 Q522 382 511 426 Q500 468 480 498 Q461 528 430 547 Z" /><glyph glyph-name="P" unicode="p" d="M66 665 Q94 670 152 675 Q196 679 272 679 Q345 679 394 666 Q443 653 478 625 Q512 599 531 559 Q550 520 550 469 Q550 419 534 378 Q519 337 488 309 Q449 273 393 255 Q336 238 269 238 Q250 238 241 239 Q233 239 223 241 Q221 242 217 242 L217 0 L66 0 L66 665 ZM217 359 Q227 356 239 356 Q248 355 268 355 Q329 355 364 384 Q399 413 399 464 Q399 512 368 537 Q337 563 279 563 Q252 563 241 562 Q223 560 217 558 L217 359 Z" /><glyph glyph-name="Q" unicode="q" d="M643 -116 Q601 -104 573 -94 Q529 -80 508 -72 Q464 -56 443 -48 Q399 -30 376 -21 Q369 -18 353 -14 Q351 -14 347.5 -13.5 Q344 -13 342 -12 Q334 -12 330 -11 Q273 -8 219 16 Q166 39 125 81 Q83 126 60 187 Q35 249 35 332 Q35 407 58 473 Q83 540 125 585 Q167 633 229 659 Q290 686 365 686 Q442 686 501 659 Q562 630 601 585 Q640 540 662 476 Q683 415 683 345 Q683 288 671 239 Q657 188 636 152 Q616 116 586 86 Q558 59 524 44 L524 40 Q550 33 604 19 L619 16 Q670 5 686 2 L643 -116 ZM291 127 Q322 110 360 110 Q398 110 429 127 Q459 145 480 175 Q500 206 511 248 Q522 292 522 339 Q522 385 511 427 Q500 469 480 499 Q459 529 429 547 Q399 565 360 565 Q322 565 290 547 Q259 529 239 498 Q217 465 207 425 Q196 383 196 336 Q196 289 207 247 Q219 206 239 175 Q260 145 291 127 Z" /><glyph glyph-name="R" unicode="r" d="M66 665 Q98 670 155 675 Q202 679 269 679 Q344 679 398 667 Q450 655 487 626 Q518 601 534 566 Q550 533 550 484 Q550 455 539 425 Q528 398 512 377 Q495 356 474 342 Q451 326 431 319 L431 316 Q468 301 487 270 Q509 238 521 191 Q526 172 536 132 Q546 94 551 76 Q552 74 555 63 Q558 52 559 47 Q563 35 564 30 Q569 15 575 0 L419 0 Q414 10 399 55 Q385 102 373 157 Q364 193 356 210 Q347 232 334 243 Q320 256 303 260 Q285 265 262 265 L217 265 L217 0 L66 0 L66 665 ZM217 375 L277 375 Q307 375 328 382 Q352 390 366 401 Q381 415 390 432 Q398 453 398 472 Q398 520 368 542 Q339 565 286 565 Q253 565 242 564 Q223 562 217 560 L217 375 Z" /><glyph glyph-name="S" unicode="s" d="M71 157 Q88 149 105 142 Q131 132 146 128 Q149 128 153.5 127 Q158 126 160 125 Q177 120 192 119 Q213 115 240 115 Q292 115 320 135 Q347 154 347 188 Q347 202 341 216 Q335 229 321 240 Q308 252 286 261 Q262 272 234 282 Q191 297 158 316 Q123 336 99 360 Q74 387 61 415 Q48 445 48 482 Q48 525 65 562 Q83 599 116 626 Q148 652 197 669 Q245 684 303 684 Q364 684 403 674 Q445 664 475 650 L441 528 L435 531 Q429 535 417 538 Q402 545 386 549 Q363 555 347 557 Q324 560 301 560 Q278 560 258 555 Q239 549 227 540 Q216 531 209 520 Q203 510 203 495 Q203 478 210 467 Q219 453 233 444 Q247 434 271 423 Q302 410 328 400 Q376 382 405 363 Q437 344 459 319 Q480 295 491 264 Q502 234 502 199 Q502 155 486 119 Q470 81 436 52 Q401 23 351 7 Q298 -10 231 -10 Q199 -10 174 -6 Q154 -4 136 0 L121 3 Q101 8 75 17 Q53 25 40 32 L71 157 Z" /><glyph glyph-name="T" unicode="t" d="M197 546 L15 546 L15 674 L533 674 L533 546 L349 546 L349 0 L197 0 L197 546 Z" /><glyph glyph-name="U" unicode="u" d="M218 674 L218 287 Q218 199 250 155 Q282 111 340 111 Q401 111 432 154 Q464 198 464 287 L464 674 L616 674 L616 296 Q616 217 597 160 Q577 102 542 64 Q503 25 453 8 Q402 -11 335 -11 Q270 -11 221 7 Q172 25 137 63 Q102 101 84 159 Q66 218 66 298 L66 674 L218 674 Z" /><glyph glyph-name="V" unicode="v" d="M225 0 L9 674 L176 674 L258 389 Q262 374 270 346 Q274 334 280.5 308.5 Q287 283 290 270 Q305 218 318 148 L321 148 Q337 222 349 269 Q352 282 360 308 Q374 360 382 386 L468 674 L630 674 L403 0 L225 0 Z" /><glyph glyph-name="W" unicode="w" d="M175 0 L15 674 L178 674 L229 397 Q236 359 240 335 L249 281 Q249 276 250 274 L259 223 Q259 218 260 215 Q264 186 269 161 L271 161 Q272 163 272 166 Q272 169 273 171 Q280 220 291 276 Q302 336 315 399 L372 674 L534 674 L588 390 L594 354 Q605 295 608 275 Q612 244 615 225 Q621 185 624 164 L626 164 Q634 224 644 279 Q654 338 665 399 L720 674 L875 674 L701 0 L536 0 L479 290 Q473 324 469 340 Q468 345 467 353.5 Q466 362 465 366 Q465 370 463.5 378 Q462 386 461 391 Q461 395 459.5 405 Q458 415 457 419 Q456 423 455 431 Q454 439 453 443 Q451 460 447 498 L445 498 Q435 437 427 391 Q418 339 406 290 L342 0 L175 0 Z" /><glyph glyph-name="X" unicode="x" d="M421 0 L360 122 Q347 147 328 186 Q323 196 314 215 Q305 234 300 243 L298 243 Q291 224 275 186 L272 180 Q269 174 260 154 Q251 134 245 122 L190 0 L16 0 L211 341 L23 674 L198 674 L257 551 Q272 520 284 494 Q300 458 308 439 L310 439 Q316 456 322 469 Q325 479 333 497 Q336 505 344 523 Q352 541 356 551 L413 674 L587 674 L397 345 L597 0 L421 0 Z" /><glyph glyph-name="Y" unicode="y" d="M222 0 L222 276 L9 674 L184 674 L252 512 Q262 488 267 477 Q268 475 270.5 468 Q273 461 275 458 Q279 450 280 446 Q284 435 292 415 Q296 405 304 383 L306 383 Q310 390 313 402 Q318 417 330 445 L336 460 Q350 494 357 512 L425 674 L596 674 L374 281 L374 0 L222 0 Z" /><glyph glyph-name="Z" unicode="z" d="M24 82 L345 544 L345 548 L53 548 L53 674 L542 674 L542 586 L228 130 L228 126 L547 126 L547 0 L24 0 L24 82 Z" /><glyph glyph-name="bracketleft" unicode="[" d="M68 -112 L68 686 L272 686 L272 602 L177 602 L177 -28 L272 -28 L272 -112 L68 -112 Z" /><glyph glyph-name="backslash" unicode="\" d="M213 -39 L12 686 L113 686 L314 -39 L213 -39 Z" /><glyph glyph-name="bracketright" unicode="]" d="M246 686 L246 -112 L42 -112 L42 -28 L137 -28 L137 602 L42 602 L42 686 L246 686 Z" /><glyph glyph-name="asciicircum" unicode="^" d="M445 177 L299 533 L296 533 L150 177 L43 177 L252 650 L345 650 L554 177 L445 177 Z" /><glyph glyph-name="grave" unicode="`" d="M144 702 L230 550 L126 550 L4 702 L144 702 Z" /><glyph glyph-name="a" unicode="a" d="M468 118 Q468 94 470 52 Q471 21 476 0 L339 0 L330 49 L327 49 Q303 19 267 4 Q231 -11 187 -11 Q150 -11 121 1 Q89 15 71 35 Q51 55 40 83 Q29 113 29 139 Q29 187 49 222 Q70 258 107 280 Q145 304 198 315 Q255 326 316 326 L316 332 Q316 344 313 354 Q308 366 300 374 Q290 384 272 390 Q256 396 227 396 Q208 396 189 393 Q177 391 153 385 Q135 380 120 373 Q119 373 118 372 Q100 365 92 359 L64 457 Q79 465 95 472 Q119 481 138 486 Q170 494 192 497 Q217 501 254 501 Q314 501 356 484 Q397 467 422 438 Q447 408 457 371 Q468 332 468 289 L468 118 ZM321 231 Q288 231 265 227 Q238 222 220 214 Q202 205 190 190 Q179 174 179 154 Q179 124 196 110 Q215 96 239 96 Q252 96 265 101 Q278 106 289 113 Q301 123 306 130 Q314 141 318 152 Q321 165 321 178 L321 231 Z" /><glyph glyph-name="b" unicode="b" d="M61 710 L213 710 L213 431 L215 431 Q236 463 274 481 Q311 500 363 500 Q406 500 444 482 Q479 466 508 433 Q535 400 550 355 Q564 307 564 253 Q564 185 545 137 Q526 89 495 55 Q463 21 423 5 Q384 -11 341 -11 Q316 -11 299 -7 Q276 -2 259 7 Q240 16 223 31 Q205 47 194 68 L192 68 L186 0 L57 0 L57 12 Q58 17 58 29 Q59 34 59 46 Q59 58 60 64 L60 83 Q61 90 61 104 L61 710 ZM213 208 Q213 193 216 181 Q219 167 228 153 Q237 139 248 130 Q260 120 274 115 Q289 109 305 109 Q355 109 382 145 Q410 180 410 247 Q410 276 404 300 Q399 323 384 344 Q371 361 351 372 Q331 383 305 383 Q290 383 275 377 Q260 370 249 362 Q237 352 228 338 Q220 324 216 308 Q213 294 213 280 L213 208 Z" /><glyph glyph-name="c" unicode="c" d="M428 13 Q411 5 372 -3 Q338 -10 292 -10 Q232 -10 185 8 Q139 25 103 58 Q71 90 51 136 Q33 182 33 240 Q33 294 51 341 Q69 388 105 424 Q141 460 192 479 Q244 500 313 500 Q339 500 374 495 Q403 491 429 481 L405 368 Q393 373 371 378 Q348 383 320 383 Q289 383 266 373 Q239 362 224 344 Q206 325 198 301 Q189 276 189 246 Q189 211 199 187 Q209 163 228 144 Q249 126 271 118 Q296 109 323 109 Q352 109 372 113 Q394 118 410 125 L428 13 Z" /><glyph glyph-name="d" unicode="d" d="M535 710 L535 105 Q536 92 536 65 Q537 59 537 47 Q537 35 538 29 Q538 9 539 0 L404 0 L398 71 L395 71 Q386 54 367 35 Q352 21 331 10 Q314 1 288 -6 Q263 -11 242 -11 Q198 -11 161 7 Q123 23 94 57 Q65 91 50 137 Q33 185 33 240 Q33 302 51 350 Q67 398 98 432 Q130 467 168 483 Q208 501 252 501 Q300 501 331 486 Q365 470 381 446 L383 446 L383 710 L535 710 ZM383 296 Q382 299 382 303 Q382 308 381 310 Q378 324 370 339 Q365 348 351 362 Q340 372 324 378 Q310 384 292 384 Q266 384 246 373 Q226 362 213 343 Q201 324 194 299 Q187 275 187 245 Q187 213 194 189 Q201 164 215 146 Q228 130 248 119 Q268 110 291 110 Q307 110 322 115 Q337 121 349 130 Q362 143 368 154 Q377 168 380 183 Q383 200 383 218 L383 296 Z" /><glyph glyph-name="e" unicode="e" d="M178 196 Q179 175 191 155 Q204 136 222 126 Q243 113 265 109 Q289 103 316 103 Q351 103 388 108 Q424 115 451 124 L471 21 Q432 5 388 -2 Q342 -10 294 -10 Q231 -10 183 8 Q138 24 101 57 Q67 91 51 135 Q33 182 33 239 Q33 272 40 301 Q46 334 59 362 Q73 392 93 416 Q110 438 140 460 Q170 479 203 489 Q239 500 280 500 Q339 500 381 479 Q423 457 448 423 Q474 387 486 345 Q498 302 498 256 Q498 242 496 220 Q494 204 493 196 L178 196 ZM357 300 Q357 316 353 331 Q350 349 340 363 Q331 378 314 389 Q298 399 271 399 Q246 399 230 389 Q212 377 202 365 Q190 350 184 332 Q179 318 177 300 L357 300 Z" /><glyph glyph-name="f" unicode="f" d="M79 0 L79 377 L14 377 L14 489 L79 489 L79 508 Q79 532 83 553 Q86 574 94 597 Q103 621 113 638 Q123 657 140 672 Q157 687 171 695 Q187 704 206 710 Q222 716 241 719 L244 719 Q264 721 276 721 Q300 721 321 718 Q345 714 356 711 L350 594 Q339 598 328 599 Q312 601 301 601 Q282 601 269 594 Q256 587 247 576 Q239 565 234 548 Q230 533 230 514 L230 489 L328 489 L328 377 L231 377 L231 0 L79 0 Z" /><glyph glyph-name="g" unicode="g" d="M524 71 Q524 32 520 4 Q515 -32 507 -56 Q500 -83 484 -107 Q471 -130 449 -149 Q430 -165 406 -178 Q384 -190 357 -196 Q334 -203 305 -206 Q278 -209 251 -209 Q236 -209 202 -207 Q183 -205 155 -199 Q140 -196 112 -188 Q86 -178 75 -172 L105 -56 L125 -66 Q126 -66 128 -67.5 Q130 -69 132 -70 Q154 -78 166 -81 Q177 -84 194 -88 Q196 -89 199.5 -89.5 Q203 -90 205 -90 Q224 -93 247 -93 Q273 -93 297 -85 Q320 -79 337 -62 Q355 -47 364 -22 Q374 1 374 36 L374 67 L372 67 Q348 35 316 20 Q283 4 240 4 Q196 4 157 21 Q120 39 91 71 Q64 102 49 146 Q33 188 33 242 Q33 302 51 349 Q68 397 99 430 Q129 464 169 482 Q210 500 255 500 Q304 500 338 480 Q371 460 389 430 L391 430 L396 489 L528 489 Q527 485 527 476 Q527 468 526 463 Q526 442 525 431 L525 413 Q524 406 524 392 L524 71 ZM372 290 Q372 300 371 304 Q371 308 369 316 L369 318 Q362 347 340 366 Q320 385 287 385 Q265 385 248 375 Q230 366 216 349 Q203 331 195 305 Q187 278 187 246 Q187 217 194 195 Q200 171 213 154 Q226 136 244 126 Q263 116 286 116 Q315 116 338 133 Q359 151 367 177 Q369 183 371 197 Q372 204 372 218 L372 290 Z" /><glyph glyph-name="h" unicode="h" d="M61 710 L213 710 L213 430 L215 430 Q239 463 275 481 Q293 491 313 495 Q335 500 354 500 Q392 500 422 487 Q454 475 476 448 Q498 423 512 381 Q525 342 525 285 L525 0 L373 0 L373 269 Q373 296 369 313 Q365 330 355 347 Q345 362 330 369 Q314 377 294 377 Q278 377 267 373 Q254 369 245 361 Q237 355 229 343 Q224 337 218 323 Q216 318 214 307 Q213 302 213 290 L213 0 L61 0 L61 710 Z" /><glyph glyph-name="i" unicode="i" d="M61 0 L61 489 L213 489 L213 0 L61 0 ZM105 695 Q120 701 138 701 Q156 701 171 695 Q186 689 196 679 Q206 669 212 655 Q216 642 218 625 Q218 610 212 595 Q206 581 196 571 Q186 561 170 555 Q156 549 136 549 Q118 549 104 555 Q89 561 79 571 Q67 583 63 595 Q57 610 57 625 Q57 642 63 655 Q67 667 79 679 Q88 688 105 695 Z" /><glyph glyph-name="j" unicode="j" d="M-39 -96 Q-13 -95 13 -86 Q38 -78 51 -64 Q60 -53 65 -43 Q71 -31 74 -12 Q78 6 80 32 Q81 50 81 95 L81 489 L233 489 L233 58 Q233 15 229 -14 Q225 -40 216 -72 Q206 -100 194 -119 Q180 -138 164 -155 Q148 -169 126 -182 Q106 -193 80 -201 Q58 -208 29 -211 Q6 -215 -24 -215 L-39 -96 ZM124 695 Q139 701 157 701 Q175 701 190 695 Q205 689 215 679 Q225 669 231 655 Q236 642 237 625 Q237 610 231 595 Q225 581 215 571 Q206 562 189 555 Q172 549 155 549 Q137 549 122 555 Q108 561 98 571 Q88 581 82 595 Q76 610 76 625 Q76 642 82 655 Q88 669 98 679 Q107 688 124 695 Z" /><glyph glyph-name="k" unicode="k" d="M213 283 L215 283 Q220 294 232 314 Q238 324 250 342 L349 489 L532 489 L357 291 L557 0 L370 0 L251 201 L213 153 L213 0 L61 0 L61 710 L213 710 L213 283 Z" /><glyph glyph-name="l" unicode="l" d="M61 710 L213 710 L213 0 L61 0 L61 710 Z" /><glyph glyph-name="m" unicode="m" d="M61 333 Q61 392 60 417 Q58 456 57 489 L186 489 L192 423 L195 423 Q202 435 215 449 Q228 462 246 474 Q263 485 288 493 Q314 501 343 501 Q391 501 426 478 Q461 456 477 417 L479 417 Q507 455 543 477 Q565 488 586 495 Q608 501 636 501 Q674 501 701 488 Q732 476 754 449 Q776 424 788 383 Q801 345 801 288 L801 0 L653 0 L653 266 Q653 320 635 349 Q617 378 581 378 Q567 378 556 374 Q544 369 536 362 Q526 354 521 345 Q516 339 510 325 Q508 320 506 306 Q505 300 505 286 L505 0 L357 0 L357 275 Q357 300 353 317 Q349 336 340 349 Q331 363 318 370 Q304 378 286 378 Q272 378 260 373 Q246 366 239 360 Q231 353 224 343 Q218 332 215 324 Q212 318 210 305 Q209 299 209 285 L209 0 L61 0 L61 333 Z" /><glyph glyph-name="n" unicode="n" d="M61 333 Q61 392 60 417 Q58 456 57 489 L189 489 L196 421 L199 421 Q207 434 220 447 Q236 463 251 473 Q276 486 295 492 Q322 500 350 500 Q390 500 420 487 Q451 475 475 448 Q498 424 512 383 Q525 344 525 289 L525 0 L373 0 L373 271 Q373 297 369 314 Q365 332 355 347 Q346 361 331 369 Q317 377 296 377 Q281 377 268 372 Q255 368 245 359 Q237 353 229 341 Q224 334 218 320 Q216 314 214 302 Q213 296 213 282 L213 0 L61 0 L61 333 Z" /><glyph glyph-name="o" unicode="o" d="M295 501 Q351 501 396 483 Q442 464 475 431 Q508 398 526 352 Q544 306 544 250 Q544 182 522 134 Q500 85 464 52 Q428 20 382 4 Q336 -11 286 -11 Q234 -11 186 6 Q141 22 106 56 Q72 87 52 135 Q33 180 33 241 Q33 302 52 349 Q72 398 105 431 Q139 464 188 483 Q238 501 295 501 ZM334 379 Q317 392 290 392 Q263 392 244 379 Q225 367 213 345 Q201 326 195 298 Q190 270 190 245 Q190 212 197 187 Q203 158 216 140 Q229 121 247 109 Q267 98 290 98 Q312 98 331 109 Q349 120 361 139 Q374 158 380 186 Q387 211 387 246 Q387 271 382 299 Q376 325 364 346 Q352 367 334 379 Z" /><glyph glyph-name="p" unicode="p" d="M61 325 Q61 387 60 414 Q58 454 57 489 L189 489 L196 421 L198 421 Q225 460 266 480 Q308 500 361 500 Q401 500 438 483 Q476 466 503 434 Q531 402 547 356 Q564 308 564 251 Q564 183 545 135 Q526 86 494 53 Q463 20 423 5 Q384 -11 342 -11 Q296 -11 264 5 Q231 21 215 45 L213 45 L213 -198 L61 -198 L61 325 ZM213 210 Q213 194 216 178 Q219 162 228 149 Q234 141 248 127 Q260 117 274 112 Q289 106 305 106 Q332 106 349 116 Q369 127 382 144 Q395 162 403 188 Q410 212 410 244 Q410 274 404 298 Q396 324 384 342 Q370 360 352 370 Q332 381 307 381 Q291 381 276 375 Q263 371 249 359 Q236 348 229 335 Q221 323 216 304 Q213 292 213 277 L213 210 Z" /><glyph glyph-name="q" unicode="q" d="M383 62 L381 62 Q357 28 321 8 Q286 -11 235 -11 Q196 -11 159 6 Q125 21 94 55 Q66 89 50 134 Q33 182 33 238 Q33 305 52 353 Q73 405 102 436 Q134 469 171 485 Q209 501 249 501 Q344 501 386 432 L388 431 L392 489 L538 489 Q537 477 537 453 Q537 429 536 417 Q535 393 535 342 L535 -198 L383 -198 L383 62 ZM383 284 Q383 296 380 309 Q377 322 369 337 Q363 348 351 360 Q340 370 324 376 Q310 382 292 382 Q267 382 247 371 Q227 360 214 343 Q199 322 194 299 Q187 275 187 244 Q187 213 194 189 Q201 164 215 146 Q228 128 248 119 Q267 109 291 109 Q307 109 322 114 Q336 119 347 128 Q361 140 367 150 Q375 164 379 178 Q382 186 382 195 Q383 201 383 211 L383 284 Z" /><glyph glyph-name="r" unicode="r" d="M61 378 Q61 394 60 401 L60 420 Q60 433 59 440 L59 456 Q58 461 58 473 Q58 484 57 489 L187 489 L193 399 L197 399 Q206 425 221 445 Q237 466 254 477 Q272 489 292 495 Q312 501 329 501 Q342 501 346 500 Q353 500 358 499 Q359 498 361 498 L361 355 Q349 357 342 358 L333 358 Q328 359 320 359 Q278 359 251 338 Q224 318 216 282 Q213 266 213 248 L213 0 L61 0 L61 378 Z" /><glyph glyph-name="s" unicode="s" d="M60 132 L86 119 Q104 112 119 108 Q137 102 155 99 Q174 96 191 96 Q225 96 241 107 Q256 118 256 136 Q256 147 253 153 Q250 161 241 167 Q234 173 220 179 Q208 185 190 191 Q189 192 188 192 Q186 193 185 193 Q148 205 120 222 Q93 239 76 258 Q60 276 52 297 Q45 318 45 340 Q45 374 59 404 Q74 435 99 455 Q124 477 162 489 Q200 501 244 501 Q288 501 323 492 Q357 485 381 472 L355 367 Q348 371 335 376 Q325 382 309 385 Q291 391 280 392 Q263 395 249 395 Q220 395 206 385 Q191 374 191 356 Q191 347 195 340 Q198 333 207 327 L208 326 Q214 322 232 313 Q236 312 244 308 Q253 304 270 299 Q304 287 330 272 Q355 257 370 238 Q386 220 394 197 Q402 173 402 148 Q402 113 389 84 Q375 54 349 34 Q324 13 283 1 Q244 -11 191 -11 Q141 -11 102 -1 Q60 10 33 24 L60 132 Z" /><glyph glyph-name="t" unicode="t" d="M231 621 L231 489 L340 489 L340 377 L231 377 L231 200 Q231 157 244 135 Q258 114 291 114 Q309 114 316 115 Q319 115 329 117 Q333 117 336 118 L337 3 Q322 -3 297 -6 Q274 -10 239 -10 Q202 -10 172 2 Q144 12 124 32 Q104 54 93 90 Q82 126 82 177 L82 377 L17 377 L17 489 L82 489 L82 580 L231 621 Z" /><glyph glyph-name="u" unicode="u" d="M522 157 Q522 96 523 70 Q524 34 526 0 L394 0 L387 69 L384 69 Q376 57 365 44 Q349 28 333 18 Q315 5 289 -3 Q262 -11 231 -11 Q194 -11 162 1 Q132 12 107 39 Q84 65 72 105 Q59 144 59 202 L59 489 L211 489 L211 226 Q211 172 229 142 Q248 112 288 112 Q304 112 316 117 Q329 121 338 129 Q348 136 354 147 Q358 153 364 165 Q370 178 370 198 L370 489 L522 489 L522 157 Z" /><glyph glyph-name="v" unicode="v" d="M174 489 L240 262 Q249 229 255 201 Q261 179 268 143 L271 143 Q279 183 283 202 Q289 230 298 262 L361 489 L521 489 L339 0 L187 0 L9 489 L174 489 Z" /><glyph glyph-name="w" unicode="w" d="M166 489 L206 288 Q208 281 210 266 Q212 251 214 243 L220 210 Q226 179 233 128 L236 128 Q241 167 253 210 Q263 255 271 287 L323 489 L443 489 L492 294 Q506 238 512 211 Q518 184 528 128 L530 128 Q540 206 559 295 L600 489 L749 489 L599 0 L457 0 L411 171 L402 207 Q398 221 397 228 L394 243 Q394 246 392 252.5 Q390 259 390 263 Q390 266 388 272 Q386 278 386 281 Q382 309 379 324 L377 324 Q376 320 374.5 311 Q373 302 373 298 Q371 286 367 265 Q363 244 363 242 Q358 218 346 172 L297 0 L154 0 L11 489 L166 489 Z" /><glyph glyph-name="x" unicode="x" d="M177 489 L225 407 Q239 383 245 370 Q259 346 265 334 L267 334 Q269 338 272.5 345 Q276 352 277 355 L286 373 Q288 376 291 382 Q294 388 296 391 L305 409 L348 489 L513 489 L352 256 L515 0 L343 0 L294 88 Q280 112 274 125 Q268 137 265 144 L256 162 L253 162 Q241 136 235 124 Q228 112 216 88 L170 0 L3 0 L169 249 L7 489 L177 489 Z" /><glyph glyph-name="y" unicode="y" d="M175 489 L248 248 Q249 243 253 231 Q254 226 257 215 Q260 204 261 202 Q264 188 267 178 Q271 164 272 157 L276 157 Q276 159 277.5 165 Q279 171 280 174 Q284 192 286 202 Q287 205 288.5 211 Q290 217 290 219 Q294 239 297 249 L358 489 L520 489 L406 167 Q375 84 357 42 Q333 -14 314 -48 Q297 -81 274 -111 Q255 -135 234 -154 Q212 -172 195 -183 Q171 -197 156 -203 Q136 -211 119 -215 Q103 -219 88 -221 L55 -93 Q73 -89 87 -83 Q115 -70 121 -67 Q127 -64 139 -56 Q141 -54 144 -51.5 Q147 -49 148 -48 Q151 -46 156 -41 Q158 -38 162 -34 Q164 -32 167 -28.5 Q170 -25 171 -24 Q181 -12 184 -6 Q192 8 192 16 Q192 23 191 26 L191 28 Q188 39 186 41 L6 489 L175 489 Z" /><glyph glyph-name="z" unicode="z" d="M22 87 L176 280 Q188 294 194 300 L215 324 Q218 327 223.5 333.5 Q229 340 232 343 Q246 359 253 366 L253 368 L39 368 L39 489 L439 489 L439 397 L292 212 Q278 196 252 166 Q234 144 212 123 L212 121 L447 121 L447 0 L22 0 L22 87 Z" /><glyph glyph-name="braceleft" unicode="{" d="M30 325 Q57 327 70 333 Q87 341 93 349 Q102 361 103 371 Q106 384 106 394 Q106 406 104 432 Q102 458 101 472 Q99 486 97 512 L97 517 Q95 539 95 551 Q95 585 106 612 Q116 638 136 654 Q156 670 184 678 Q214 686 247 686 L282 686 L282 601 L264 601 Q230 599 217 582 Q203 562 203 530 Q203 521 204 517 L204 503 Q206 482 208 473 Q209 463 211 441 Q213 419 213 404 Q213 378 208 356 Q202 336 191 322 Q180 308 164 301 Q149 293 127 288 L127 286 Q147 282 164 274 Q181 266 191 252 Q202 237 208 219 Q213 197 213 170 Q213 157 211 133 Q210 128 210 118 Q210 117 209 116 L209 111 Q209 104 208 100 Q206 92 204 74 L204 71 Q204 61 203 56 L203 44 Q203 11 216 -8 Q230 -28 264 -28 L282 -28 L282 -112 L246 -112 Q212 -112 185 -105 Q159 -98 137 -82 Q118 -66 106 -40 Q95 -12 95 24 Q95 34 97 60 L97 63 Q99 89 101 103 Q102 117 104 143 L104 146 Q106 168 106 181 Q106 186 104 200 L104 203 Q101 216 94 224 Q86 235 71 241 Q58 247 30 249 L30 325 Z" /><glyph glyph-name="bar" unicode="|" d="M194 750 L194 -250 L88 -250 L88 750 L194 750 Z" /><glyph glyph-name="braceright" unicode="}" d="M284 249 Q256 247 243 241 Q229 235 221 224 Q213 216 211 203 Q208 192 208 181 Q208 168 210 146 L210 143 Q212 117 214 103 Q215 89 217 63 Q219 35 219 24 Q219 -12 208 -40 Q197 -66 177 -82 Q157 -98 129 -105 Q102 -112 68 -112 L32 -112 L32 -28 L50 -28 Q84 -28 98 -8 Q111 11 111 44 L111 56 Q110 61 110 71 L110 74 Q108 92 106 100 L106 104 Q105 105 105 109 L105 111 Q104 115 104 122 Q104 129 103 133 Q101 157 101 170 Q101 197 106 219 Q112 237 123 252 Q133 266 150 274 Q167 282 187 286 L187 288 Q165 293 150 301 Q134 308 123 322 Q112 336 106 356 Q101 378 101 404 Q101 419 103 441 Q105 463 106 473 Q108 482 110 503 Q110 512 111 517 L111 530 Q111 562 97 582 Q84 600 50 601 L32 601 L32 686 L67 686 Q100 686 130 678 Q158 670 178 654 Q198 638 208 612 Q219 585 219 551 Q219 538 217 512 Q215 486 214 472 Q212 458 210 432 Q208 406 208 394 Q208 389 210 371 Q213 359 220 349 Q226 341 243 333 Q256 327 284 325 L284 249 Z" /><glyph glyph-name="asciitilde" unicode="~" d="M42 192 Q42 244 52 278 Q63 315 81 336 Q99 358 125 369 Q149 379 181 379 Q200 379 216 376 Q232 373 248 367 Q269 358 271 357 Q273 356 277 354.5 Q281 353 282 353 Q298 344 321 332 Q323 332 325 330 Q327 328 329 328 Q351 314 376 303 Q400 292 417 292 Q435 292 445 310 Q456 328 457 373 L552 373 Q555 322 544 284 Q535 248 516 226 Q499 205 473 194 Q448 185 419 185 Q400 185 384 188 Q369 191 351 197 Q336 202 317 212 Q316 212 314.5 213 Q313 214 312 215 Q311 216 310 216 Q290 226 279 232 Q245 251 241 254 Q229 260 224 263 Q200 274 184 274 Q174 274 167 270 Q158 267 153 257 Q146 249 143 232 Q138 217 137 192 L42 192 Z" /><glyph glyph-name="copyright" unicode="©" d="M440 449 L346 430 Q335 486 287 486 Q218 486 215 388 Q215 292 289 287 Q340 287 349 347 L445 332 Q417 205 291 205 Q212 205 166 254 Q119 304 119 387 Q119 470 165 519 Q212 567 290 567 Q349 567 388 537 Q427 507 440 449 ZM285 636 Q390 636 463 563 Q536 490 536 386 Q536 282 463 209 Q389 135 286 135 Q183 135 109 209 Q35 283 35 385 Q35 489 109 563 Q182 636 285 636 ZM286 601 Q195 601 133 539 Q70 476 70 386 Q70 294 133 233 Q194 170 286 170 Q376 170 439 233 Q501 295 501 386 Q501 475 439 539 Q375 601 286 601 Z" /></font>
</defs>
</svg>
