<?xml version="1.0" standalone="no"?><!DOCTYPE svg PUBLIC "-//W3C//DTD SVG 1.1//EN" "http://www.w3.org/Graphics/SVG/1.1/DTD/svg11.dtd"><svg t="1577894428082" class="icon" viewBox="0 0 1024 1024" version="1.1" xmlns="http://www.w3.org/2000/svg" p-id="7348" xmlns:xlink="http://www.w3.org/1999/xlink" width="200" height="200"><defs><style type="text/css"></style></defs><path d="M251.52 300.16a343.9872 343.9872 0 0 0-125.1072 23.3728 345.7536 345.7536 0 0 0 447.3344 447.3344A345.7536 345.7536 0 0 0 251.52 300.16z" fill="#EE7C3D" p-id="7349"></path><path d="M908.9536 851.0464l-185.6-185.6a34.8672 34.8672 0 0 0-3.2512-2.9184 345.6 345.6 0 1 0-57.5744 57.5744 34.8672 34.8672 0 0 0 2.9184 3.2512l185.6 185.6a40.96 40.96 0 0 0 57.9072-57.9072z m-460.3136-138.7264a263.68 263.68 0 1 1 263.68-263.68 263.9872 263.9872 0 0 1-263.68 263.68z" fill="#333333" p-id="7350"></path></svg>